<svg class="formu-logo" width="322" height="66" viewBox="0 0 322 66" fill="none" xmlns="http://www.w3.org/2000/svg">
    <path d="M0 64.5192H16.512V43.0152H38.016V28.1352H16.512V16.0392H43.008V1.15918H0V64.5192Z" fill="white"/>
    <path d="M48.2985 32.8392C47.9145 51.1752 63.8505 65.9592 82.3785 65.6712C100.811 65.9592 117.035 51.1752 116.651 32.8392C117.035 14.6952 100.811 -0.376822 82.3785 0.00717923C63.8505 -0.376822 47.9145 14.6952 48.2985 32.8392ZM99.7545 32.8392C99.7545 43.3992 92.2665 50.5032 82.4745 50.5032C77.3865 50.5032 73.1625 48.8712 69.9945 45.7032C66.8265 42.4392 65.1945 38.1192 65.1945 32.8392C65.1945 22.3752 72.2985 15.1752 82.4745 15.1752C92.2665 15.1752 99.7545 22.3752 99.7545 32.8392Z" fill="white"/>
    <path d="M182.158 64.5192L165.454 40.9992C171.694 37.1592 175.438 30.7272 175.438 22.9512C175.438 9.79918 165.07 1.15918 150.958 1.15918H126.094V64.5192H142.606V44.8392H149.422L163.726 64.5192H182.158ZM142.606 15.5592H151.054C155.662 15.5592 158.638 18.4392 158.638 22.9512C158.638 27.4632 155.662 30.4392 151.054 30.4392H142.606V15.5592Z" fill="white"/>
    <path d="M247.951 0.00717923L220.975 32.9352L193.999 0.00717923H188.719V64.5192H205.231V38.0232L218.287 53.2872H223.567L236.719 37.9272V64.5192H253.231V0.00717923H247.951Z" fill="white"/>
    <path d="M265.491 37.6392C265.491 54.5352 277.299 65.6712 293.523 65.6712C309.555 65.6712 321.555 54.3432 321.555 37.6392V1.15918H305.043V38.8872C305.043 46.0872 300.339 50.5032 293.523 50.5032C286.707 50.5032 282.003 46.0872 282.003 38.8872V1.15918H265.491V37.6392Z" fill="white"/>
</svg>
