<svg width="37" height="33" viewBox="0 0 37 33" fill="none" xmlns="http://www.w3.org/2000/svg">
<path d="M35.7119 25.9564V11.2203C35.7119 10.6681 35.2642 10.2203 34.7119 10.2203H16.0724C15.5201 10.2203 15.0724 10.6681 15.0724 11.2203V25.9564C15.0724 26.5087 15.5201 26.9564 16.0724 26.9564H27.2885C27.5949 26.9564 27.8843 27.0968 28.0739 27.3374L30.7512 30.7345C31.3386 31.4798 32.5366 31.0645 32.5366 30.1156V27.9564C32.5366 27.4041 32.9843 26.9564 33.5366 26.9564H34.7119C35.2642 26.9564 35.7119 26.5087 35.7119 25.9564Z"/>
<path d="M1 19.5254V2C1 1.44772 1.44772 1 2 1H24.3921C24.9444 1 25.3921 1.44771 25.3921 2V19.5254C25.3921 20.0777 24.9444 20.5254 24.3921 20.5254H10.8628C10.5587 20.5254 10.2711 20.6638 10.0813 20.9015L6.53414 25.3448C5.94406 26.0839 4.75263 25.6666 4.75263 24.7208V21.5254C4.75263 20.9731 4.30492 20.5254 3.75263 20.5254H2C1.44772 20.5254 1 20.0777 1 19.5254Z" style="fill: var(--background-color-primary);"/>
<path d="M6.15979 6.42371H20.2322" stroke-linecap="round"/>
<path d="M6.15979 12.9323H20.2322" stroke-linecap="round"/>
</svg>
