<svg width="37" height="33" viewBox="0 0 37 33" xmlns="http://www.w3.org/2000/svg">
<path d="M35.7119 25.9563V11.2202C35.7119 10.6679 35.2642 10.2202 34.7119 10.2202H16.0724C15.5201 10.2202 15.0724 10.6679 15.0724 11.2202V25.9563C15.0724 26.5086 15.5201 26.9563 16.0724 26.9563H27.2885C27.5949 26.9563 27.8843 27.0967 28.0739 27.3373L30.7512 30.7344C31.3386 31.4797 32.5366 31.0644 32.5366 30.1154V27.9563C32.5366 27.404 32.9843 26.9563 33.5366 26.9563H34.7119C35.2642 26.9563 35.7119 26.5086 35.7119 25.9563Z"  style="stroke: var(--background-color-primary);"/>
<path d="M1 19.5254V2C1 1.44772 1.44772 1 2 1H24.3921C24.9444 1 25.3921 1.44771 25.3921 2V19.5254C25.3921 20.0777 24.9444 20.5254 24.3921 20.5254H10.8628C10.5587 20.5254 10.2711 20.6638 10.0813 20.9015L6.53414 25.3448C5.94406 26.0839 4.75263 25.6666 4.75263 24.7208V21.5254C4.75263 20.9731 4.30492 20.5254 3.75263 20.5254H2C1.44772 20.5254 1 20.0777 1 19.5254Z"  style="stroke: var(--background-color-primary);"/>
<path d="M6.16016 6.42383H20.2325" stroke-linecap="round" style="stroke: var(--background-color-primary);"/>
<path d="M6.16016 12.9321H20.2325" stroke-linecap="round" style="stroke: var(--background-color-primary);"/>
</svg>
